<?xml version="1.0" encoding="UTF-8"?>
<!DOCTYPE svg PUBLIC "-//W3C//DTD SVG 1.1//EN" "http://www.w3.org/Graphics/SVG/1.1/DTD/svg11.dtd">
<!-- Creator: CorelDRAW X7 -->
<svg xmlns="http://www.w3.org/2000/svg" xml:space="preserve" width="13.8601mm" height="7.8063mm" version="1.1" style="shape-rendering:geometricPrecision; text-rendering:geometricPrecision; image-rendering:optimizeQuality; fill-rule:evenodd; clip-rule:evenodd"
viewBox="0 0 303 171"
 xmlns:xlink="http://www.w3.org/1999/xlink">
 <defs>
  <style type="text/css">
   <![CDATA[
    .fil0 {fill:black}
   ]]>
  </style>
 </defs>
 <g id="Слой_x0020_1">
  <metadata id="CorelCorpID_0Corel-Layer"/>
  <path class="fil0" d="M281 117l-32 -25 -28 -8 39 40 18 5 3 -12zm-161 -41c0,4 4,8 8,8 5,0 8,-4 8,-8 0,-4 -3,-8 -8,-8 -4,0 -8,4 -8,8zm-120 -59l129 -17 91 20 49 26 34 31 -50 -32 -32 -8 -94 -6 -31 15 13 -2 53 1 57 23 28 8 49 42 -6 18 -36 -5 -42 -40 -12 -2 -21 34 -41 13 -40 -29 -9 -33 9 -17 -12 -3 0 -3 -17 8 -29 23 37 31 54 37 38 6 -67 0 -42 -4 23 19 -31 -12 -21 -19 76 10 16 1 -65 -31 -56 -36 56 -38 69 -23 78 5 -75 -19 -130 8z"/>
 </g>
</svg>
